HIERARCHY
ROOT joint_0
{
	OFFSET 0.000000 0.000000 0.000000
	CHANNELS 6 Xposition Yposition Zposition Zrotation Yrotation Xrotation 
	JOINT joint_1
	{
		OFFSET 6.590088 -1.122192 114.019043
		CHANNELS 3 Zrotation Yrotation Xrotation
		JOINT joint_2
		{
			OFFSET -5.956055 -0.820435 104.151001
			CHANNELS 3 Zrotation Yrotation Xrotation
			JOINT joint_3
			{
				OFFSET -7.343506 -1.103027 103.942993
				CHANNELS 3 Zrotation Yrotation Xrotation
				JOINT joint_4
				{
					OFFSET 3.109131 -2.857056 147.715942
					CHANNELS 3 Zrotation Yrotation Xrotation
					JOINT joint_5
					{
						OFFSET 28.592285 -2.852295 87.703979
						CHANNELS 3 Zrotation Yrotation Xrotation
						End Site
						{
							OFFSET 0.000000 0.000000 0.000000
						}
					}
				}
				JOINT joint_6
				{
					OFFSET -0.332520 -33.687378 82.401978
					CHANNELS 3 Zrotation Yrotation Xrotation
					JOINT joint_7
					{
						OFFSET -7.397461 -168.719177 -22.750977
						CHANNELS 3 Zrotation Yrotation Xrotation
						JOINT joint_8
						{
							OFFSET 17.065918 -24.903137 -272.721069
							CHANNELS 3 Zrotation Yrotation Xrotation
							JOINT joint_9
							{
								OFFSET 33.311279 -37.031616 -278.192993
								CHANNELS 3 Zrotation Yrotation Xrotation
								End Site
								{
									OFFSET 0.000000 0.000000 0.000000
								}
							}
						}
					}
				}
				JOINT joint_10
				{
					OFFSET 3.914307 30.461670 83.552979
					CHANNELS 3 Zrotation Yrotation Xrotation
					JOINT joint_11
					{
						OFFSET 15.543701 166.845459 -30.963013
						CHANNELS 3 Zrotation Yrotation Xrotation
						JOINT joint_12
						{
							OFFSET 35.734863 35.017700 -269.786011
							CHANNELS 3 Zrotation Yrotation Xrotation
							JOINT joint_13
							{
								OFFSET 70.506592 13.977783 -273.320007
								CHANNELS 3 Zrotation Yrotation Xrotation
								End Site
								{
									OFFSET 0.000000 0.000000 0.000000
								}
							}
						}
					}
				}
			}
		}
	}
	JOINT joint_14
	{
		OFFSET -0.314697 -95.093994 -116.004028
		CHANNELS 3 Zrotation Yrotation Xrotation
		JOINT joint_15
		{
			OFFSET -22.490723 2.017883 -455.510986
			CHANNELS 3 Zrotation Yrotation Xrotation
			JOINT joint_16
			{
				OFFSET -46.427490 7.144104 -496.360985
				CHANNELS 3 Zrotation Yrotation Xrotation
				JOINT joint_17
				{
					OFFSET 209.055420 -37.122803 -85.191002
					CHANNELS 3 Zrotation Yrotation Xrotation
					End Site
					{
						OFFSET 0.000000 0.000000 0.000000
					}
				}
			}
		}
	}
	JOINT joint_18
	{
		OFFSET 5.652832 94.642578 -116.244019
		CHANNELS 3 Zrotation Yrotation Xrotation
		JOINT joint_19
		{
			OFFSET -12.379883 -7.332642 -455.843994
			CHANNELS 3 Zrotation Yrotation Xrotation
			JOINT joint_20
			{
				OFFSET -45.227051 -8.172241 -496.457985
				CHANNELS 3 Zrotation Yrotation Xrotation
				JOINT joint_21
				{
					OFFSET 210.522949 -11.530396 -88.809004
					CHANNELS 3 Zrotation Yrotation Xrotation
					End Site
					{
						OFFSET 0.000000 0.000000 0.000000
					}
				}
			}
		}
	}
}
MOTION
Frames: 18
Frame Time: 0.016667
-2729.784668 859.720764 1190.838013 4.193291 5.879957 1.919378 0.141280 2.988671 -2.789839 0.448000 -0.448575 0.563322 0.392668 0.570319 -0.407826 0.284009 -7.564065 -1.720872 0.000000 0.000000 0.000000 0.269043 3.600135 -0.912713 -1.629894 4.200360 -7.357765 2.199185 -33.927259 -1.731473 0.000000 0.000000 0.000000 2.802712 0.942153 1.861495 0.861367 0.627440 1.222294 0.095812 -6.720610 2.314470 0.000000 0.000000 0.000000 -2.294297 -7.954070 -6.511213 -2.663567 13.018518 -1.171429 -3.075333 1.492119 -0.940002 0.000000 0.000000 0.000000 1.021661 -18.877178 4.356558 0.675671 9.077554 0.490690 0.700885 11.011637 0.871491 0.000000 0.000000 0.000000 
-2723.918701 858.471497 1190.328979 5.304664 5.711515 2.041352 0.102838 3.116891 -2.545217 0.403010 -0.471411 0.490082 0.358020 0.594908 -0.371376 0.268318 -7.693046 -1.660390 0.000000 0.000000 0.000000 0.433851 3.399942 -0.619695 -1.567162 3.991371 -7.213213 1.968463 -29.901630 -1.453247 0.000000 0.000000 0.000000 2.626794 1.046712 1.678264 0.817153 0.783013 0.769050 0.613663 -4.061043 3.573673 0.000000 0.000000 0.000000 -2.513351 -7.766943 -6.574331 -2.855630 13.935109 -1.122567 -3.250633 1.234404 -1.051514 0.000000 0.000000 0.000000 0.149153 -19.276209 4.131856 -0.181206 9.797288 -0.132686 -0.169594 10.031667 0.468859 0.000000 0.000000 0.000000 
-2717.203613 857.694946 1189.758057 6.571212 5.540797 2.120651 0.046337 3.157536 -2.286732 0.328004 -0.488850 0.433137 0.291534 0.620751 -0.331525 0.255555 -7.823802 -1.609453 0.000000 0.000000 0.000000 0.519942 3.290335 -0.235055 -1.449395 3.867950 -7.048917 1.755712 -25.885976 -1.373400 0.000000 0.000000 0.000000 2.489668 1.262051 1.506745 0.787055 1.036953 0.416453 1.076138 -1.832911 4.800387 0.000000 0.000000 0.000000 -2.858942 -7.572876 -6.530473 -3.153442 14.920995 -1.155555 -3.528424 1.009968 -1.196300 0.000000 0.000000 0.000000 -1.178015 -19.342390 3.906713 -1.482921 9.592953 -0.885955 -1.537788 9.183407 -0.131248 0.000000 0.000000 0.000000 
-2710.104492 857.593445 1189.181030 7.533505 5.527599 2.046758 0.077420 2.998515 -1.936340 0.317932 -0.483655 0.380758 0.287681 0.616612 -0.294243 0.255172 -7.927834 -1.588460 0.000000 0.000000 0.000000 0.580465 3.221663 0.140252 -1.286993 3.785099 -6.870196 1.572673 -22.023814 -1.381908 0.000000 0.000000 0.000000 2.515122 1.575649 1.373863 0.740282 1.356054 0.149789 1.442005 0.009992 5.810184 0.000000 0.000000 0.000000 -3.143533 -7.580581 -6.342369 -3.382621 15.899929 -1.218881 -3.740757 0.900888 -1.294190 0.000000 0.000000 0.000000 -2.076052 -19.314838 3.602703 -2.320503 9.068938 -1.253885 -2.410007 8.767596 -0.507773 0.000000 0.000000 0.000000 
-2702.606445 858.361450 1188.531982 7.957568 5.780726 1.682667 0.268316 2.532381 -1.331922 0.435768 -0.441005 0.304457 0.411699 0.555543 -0.255297 0.282934 -7.984008 -1.635791 0.000000 0.000000 0.000000 0.622031 3.210799 0.422017 -1.104422 3.755274 -6.633442 1.400170 -18.311012 -1.475248 0.000000 0.000000 0.000000 2.828513 2.003919 1.301073 0.661744 1.741421 -0.081620 1.691182 1.459640 6.489190 0.000000 0.000000 0.000000 -3.291729 -7.871113 -5.878155 -3.466537 16.780024 -1.318013 -3.823702 0.910178 -1.320331 0.000000 0.000000 0.000000 -2.144736 -19.402895 3.178415 -2.289173 8.612647 -0.945343 -2.350502 8.976476 -0.470384 0.000000 0.000000 0.000000 
-2694.725342 859.805542 1187.876953 8.063143 6.191408 1.162380 0.536096 1.871942 -0.624642 0.621900 -0.371868 0.217007 0.603481 0.455903 -0.216513 0.320254 -8.012049 -1.700589 0.000000 0.000000 0.000000 0.642745 3.245153 0.668221 -0.932538 3.768883 -6.325976 1.211021 -14.742210 -1.656460 0.000000 0.000000 0.000000 3.317085 2.526001 1.318090 0.564250 2.196161 -0.260160 1.852399 2.550706 6.902705 0.000000 0.000000 0.000000 -3.379140 -8.360870 -5.257309 -3.473519 17.653836 -1.471654 -3.845695 1.031254 -1.302379 0.000000 0.000000 0.000000 -1.792789 -19.382392 2.690014 -1.807357 7.875374 -0.281040 -1.823060 9.537262 -0.222155 0.000000 0.000000 0.000000 
-2686.964355 861.546448 1187.473999 8.098685 6.612088 0.806758 0.748697 1.202525 -0.231747 0.780956 -0.279122 0.178991 0.762187 0.358289 -0.191113 0.322947 -8.044349 -1.660696 0.000000 0.000000 0.000000 0.693936 3.251932 0.965566 -0.800549 3.766569 -5.965194 0.998227 -11.535204 -1.885763 0.000000 0.000000 0.000000 3.749404 3.075778 1.444276 0.463563 2.689737 -0.311250 1.953132 3.373154 7.117772 0.000000 0.000000 0.000000 -3.450390 -9.029084 -4.839610 -3.446796 18.725632 -1.650074 -3.836811 1.313266 -1.242644 0.000000 0.000000 0.000000 -1.384403 -18.871074 2.195106 -1.243427 6.502673 0.285910 -1.246826 9.964947 0.039182 0.000000 0.000000 0.000000 
-2679.337891 863.583191 1187.516968 8.101325 6.983998 0.759706 0.871072 0.590154 -0.349986 0.892754 -0.180348 0.206243 0.867529 0.284547 -0.181095 0.262930 -8.087311 -1.432844 0.000000 0.000000 0.000000 0.834983 3.214574 1.335069 -0.724434 3.739917 -5.498101 0.740433 -8.729852 -2.288107 0.000000 0.000000 0.000000 4.070630 3.661304 1.704918 0.364915 3.238698 -0.235604 1.992222 3.896700 7.114019 0.000000 0.000000 0.000000 -3.524675 -9.885076 -4.743984 -3.386480 20.078247 -1.941616 -3.804181 1.812144 -1.133351 0.000000 0.000000 0.000000 -0.957281 -17.461888 1.700754 -0.646752 4.039067 0.573332 -0.699854 10.101205 0.272809 0.000000 0.000000 0.000000 
-2671.831787 865.916687 1187.811035 7.955761 7.315763 0.803767 0.965880 0.080712 -0.644429 1.004058 -0.116966 0.214068 0.975174 0.218565 -0.182979 0.168407 -8.137187 -1.101843 0.000000 0.000000 0.000000 1.015726 3.160515 1.705626 -0.702465 3.704400 -4.905295 0.442329 -6.300756 -2.838531 0.000000 0.000000 0.000000 4.344198 4.272790 2.071794 0.261074 3.821391 -0.075592 1.972929 4.162576 6.888168 0.000000 0.000000 0.000000 -3.560757 -10.865401 -4.761635 -3.258587 21.600692 -2.290065 -3.718274 2.539846 -0.960684 0.000000 0.000000 0.000000 -0.422987 -15.471857 1.302839 0.016822 0.872434 0.667236 -0.120941 10.272321 0.522415 0.000000 0.000000 0.000000 
-2664.913574 868.175659 1188.026001 7.778357 7.617214 0.803891 1.028979 -0.279130 -0.880772 1.091489 -0.074271 0.187540 1.061736 0.148496 -0.201615 0.080249 -8.211802 -0.798763 0.000000 0.000000 0.000000 1.123369 3.100319 2.004885 -0.705427 3.648260 -4.232074 0.170118 -4.424636 -3.305466 0.000000 0.000000 0.000000 4.508767 4.819789 2.476253 0.153418 4.354301 0.153664 1.923672 4.343864 6.545501 0.000000 0.000000 0.000000 -3.537251 -11.904926 -4.863402 -3.081739 23.228540 -2.412210 -3.559435 3.447909 -0.725867 0.000000 0.000000 0.000000 -0.019778 -13.711822 1.079214 0.491562 -1.957882 0.642417 0.288891 10.601540 0.711690 0.000000 0.000000 0.000000 
-2658.743652 870.216614 1187.998047 7.695176 7.922037 0.824364 1.026769 -0.527192 -1.204481 1.123816 -0.000469 0.219970 1.086541 0.056502 -0.244810 0.008351 -8.319916 -0.554121 0.000000 0.000000 0.000000 1.088316 3.054739 2.166932 -0.696719 3.568706 -3.358909 -0.030444 -3.283862 -3.720563 0.000000 0.000000 0.000000 4.541344 5.277574 2.978766 0.041232 4.830462 0.396900 1.844079 4.457203 6.093435 0.000000 0.000000 0.000000 -3.488533 -13.103025 -5.176953 -2.891340 25.115932 -2.180163 -3.338585 4.714172 -0.399170 0.000000 0.000000 0.000000 0.069176 -12.480655 0.942877 0.629022 -4.144941 0.639189 0.399469 11.091364 0.786314 0.000000 0.000000 0.000000 
-2653.160400 872.183960 1187.890991 7.637602 8.220316 0.892115 0.975313 -0.675701 -1.642800 1.113965 0.078041 0.304968 1.064137 -0.041522 -0.301789 -0.057038 -8.449887 -0.336590 0.000000 0.000000 0.000000 0.987858 3.025512 2.215184 -0.668435 3.481152 -2.347963 -0.161255 -2.703630 -4.095415 0.000000 0.000000 0.000000 4.474929 5.676930 3.534221 -0.070536 5.268172 0.665503 1.728791 4.470988 5.529404 0.000000 0.000000 0.000000 -3.393736 -14.388618 -5.690941 -2.649279 27.096060 -1.693663 -3.012930 6.193326 0.008777 0.000000 0.000000 0.000000 -0.011228 -11.519713 0.843608 0.589768 -5.961992 0.661155 0.352544 11.625176 0.798242 0.000000 0.000000 0.000000 
-2648.144043 874.129272 1187.875000 7.501419 8.508766 0.905287 0.916205 -0.754430 -1.956911 1.086521 0.125814 0.365911 1.027554 -0.112420 -0.347058 -0.103030 -8.595149 -0.186627 0.000000 0.000000 0.000000 0.929381 2.996696 2.216666 -0.624150 3.402442 -1.523426 -0.218356 -2.339247 -4.154316 0.000000 0.000000 0.000000 4.325244 6.009459 3.922634 -0.162675 5.623468 1.041857 1.600426 4.483253 4.945660 0.000000 0.000000 0.000000 -3.175582 -15.511717 -6.278566 -2.297876 28.692273 -0.972712 -2.494244 7.196684 0.399395 0.000000 0.000000 0.000000 -0.042055 -10.890667 0.797477 0.598078 -7.178048 0.653559 0.354891 11.960101 0.819168 0.000000 0.000000 0.000000 
-2643.895264 876.209290 1188.000000 7.249141 8.809941 0.825516 0.853845 -0.774551 -2.070593 1.041329 0.145186 0.395489 0.977551 -0.138892 -0.374324 -0.119711 -8.775378 -0.136135 0.000000 0.000000 0.000000 0.967115 2.945651 2.157345 -0.553061 3.321407 -1.036964 -0.176109 -2.118413 -3.667194 0.000000 0.000000 0.000000 4.035478 6.278277 4.058538 -0.220957 5.892647 1.568541 1.460292 4.499807 4.349527 0.000000 0.000000 0.000000 -2.861797 -16.484716 -6.980488 -1.861931 30.016148 0.060900 -1.808234 7.355402 0.693101 0.000000 0.000000 0.000000 0.054890 -10.779566 0.810536 0.760588 -7.465381 0.561082 0.498604 11.874982 0.874638 0.000000 0.000000 0.000000 
-2640.213135 878.267212 1188.215942 6.928716 9.115369 0.714762 0.779753 -0.756151 -2.114816 0.977321 0.153534 0.428954 0.909298 -0.142512 -0.388734 -0.117091 -8.968626 -0.149385 0.000000 0.000000 0.000000 1.045230 2.892850 2.049050 -0.462972 3.246129 -0.735931 -0.061854 -2.102540 -2.853215 0.000000 0.000000 0.000000 3.651671 6.486123 4.052356 -0.250765 6.089989 2.181256 1.304320 4.498488 3.730709 0.000000 0.000000 0.000000 -2.435874 -17.321675 -7.789552 -1.330421 30.991835 1.335296 -0.941119 6.949313 0.944836 0.000000 0.000000 0.000000 0.192514 -11.020372 0.852251 0.978098 -7.141439 0.433343 0.691207 11.535910 0.935625 0.000000 0.000000 0.000000 
-2636.463623 879.895264 1188.545044 6.548257 9.397511 0.592012 0.721182 -0.794852 -2.106605 0.925539 0.166812 0.433996 0.856926 -0.145720 -0.389590 -0.113867 -9.102437 -0.161104 0.000000 0.000000 0.000000 1.099976 2.882428 2.001097 -0.387709 3.217791 -0.490412 0.043701 -2.143535 -2.121532 0.000000 0.000000 0.000000 3.330115 6.617869 3.969976 -0.257630 6.191912 2.815918 1.153150 4.546715 3.153308 0.000000 0.000000 0.000000 -1.747704 -17.808638 -8.476653 -0.615257 30.898295 2.609896 0.198219 6.145514 1.216434 0.000000 0.000000 0.000000 0.357678 -11.176228 0.920061 1.170683 -6.928547 0.333352 0.867813 11.272334 0.993773 0.000000 0.000000 0.000000 
-2632.354980 880.919189 1189.015015 6.139643 9.646397 0.492322 0.670446 -0.924976 -2.076630 0.881254 0.171903 0.407529 0.816490 -0.152062 -0.370868 -0.115764 -9.131369 -0.151233 0.000000 0.000000 0.000000 1.111071 2.943648 2.078199 -0.336752 3.268002 -0.292640 0.122103 -2.220021 -1.603299 0.000000 0.000000 0.000000 3.136466 6.647152 3.765420 -0.237477 6.149927 3.557059 1.008392 4.751988 2.598731 0.000000 0.000000 0.000000 -0.522311 -17.708445 -9.047766 0.517132 29.106753 3.978948 1.880375 4.849216 1.602164 0.000000 0.000000 0.000000 0.540497 -11.080428 0.992928 1.289914 -7.108891 0.274902 0.984016 11.238568 1.039246 0.000000 0.000000 0.000000 
-2628.177979 881.512146 1189.595947 5.704230 9.850704 0.412589 0.625295 -1.065973 -2.046037 0.838427 0.155430 0.381357 0.778655 -0.152950 -0.338983 -0.115764 -9.101570 -0.146745 0.000000 0.000000 0.000000 1.102089 3.048302 2.213260 -0.296270 3.366434 -0.154128 0.195839 -2.353507 -1.165623 0.000000 0.000000 0.000000 3.005347 6.593322 3.476366 -0.192159 6.004905 4.343120 0.871060 5.018766 2.077917 0.000000 0.000000 0.000000 0.950555 -17.162406 -9.509795 1.836664 25.982789 5.148415 3.561993 3.426304 1.989002 0.000000 0.000000 0.000000 0.739667 -10.878599 1.052956 1.378596 -7.400719 0.250682 1.078238 11.291868 1.079884 0.000000 0.000000 0.000000 
